<?xml version="1.0" encoding="utf-8"?>
<!-- Generator: Adobe Illustrator 16.0.0, SVG Export Plug-In . SVG Version: 6.00 Build 0)  -->
<!DOCTYPE svg PUBLIC "-//W3C//DTD SVG 1.1//EN" "http://www.w3.org/Graphics/SVG/1.1/DTD/svg11.dtd">
<svg version="1.1" id="Capa_1" xmlns="http://www.w3.org/2000/svg" xmlns:xlink="http://www.w3.org/1999/xlink" x="0px" y="0px"
	 width="216px" height="146px" viewBox="0 0 216 146" enable-background="new 0 0 216 146" xml:space="preserve">
<g>
	<path fill="#FFFFFF" d="M108,99.07c7.17,0,13.307-2.553,18.412-7.657S134.07,80.17,134.07,73V31.286
		c0-7.17-2.551-13.307-7.658-18.413C121.307,7.768,115.17,5.214,108,5.214s-13.307,2.554-18.413,7.659s-7.659,11.243-7.659,18.413
		V73c0,7.17,2.554,13.309,7.659,18.413S100.83,99.07,108,99.07z"/>
	<path fill="#FFFFFF" d="M153.38,58.905c-1.03-1.032-2.254-1.548-3.666-1.548s-2.634,0.516-3.666,1.548
		c-1.032,1.032-1.548,2.254-1.548,3.666V73c0,10.049-3.572,18.643-10.714,25.786S118.049,109.5,108,109.5
		s-18.644-3.57-25.787-10.714C75.071,91.645,71.5,83.049,71.5,73V62.571c0-1.412-0.516-2.634-1.548-3.666
		c-1.032-1.032-2.253-1.548-3.666-1.548s-2.635,0.516-3.667,1.548c-1.032,1.032-1.548,2.254-1.548,3.666V73
		c0,12.004,4.006,22.445,12.017,31.326c8.011,8.88,17.91,13.972,29.697,15.275v10.756H81.928c-1.412,0-2.634,0.516-3.666,1.547
		c-1.032,1.033-1.548,2.255-1.548,3.666c0,1.412,0.516,2.636,1.548,3.666c1.032,1.033,2.254,1.55,3.666,1.55h52.142
		c1.412,0,2.636-0.517,3.666-1.55c1.033-1.03,1.55-2.254,1.55-3.666c0-1.411-0.517-2.633-1.55-3.666
		c-1.03-1.031-2.254-1.547-3.666-1.547h-20.855v-10.756c11.785-1.304,21.684-6.396,29.696-15.275
		C150.923,95.445,154.93,85.004,154.93,73V62.571C154.93,61.159,154.413,59.938,153.38,58.905z"/>
</g>
</svg>
